<svg xmlns="http://www.w3.org/2000/svg" viewBox="0 0 24 24" fill="none" style="image-rendering: pixelated;">
    <rect width="24" height="24" fill="#080c2b"/>
    <!-- Main Chip Outline (Cyan) -->
    <path fill="#00ffff" d="M8 4H16V5H17V6H18V8H19V16H18V18H17V19H16V20H8V19H7V18H6V16H5V8H6V6H7V5H8V4Z"/>
    <!-- Inner Shadow -->
    <path fill="#080c2b" d="M9 6H15V7H16V8H17V16H16V17H15V18H9V17H8V16H7V8H8V7H9V6Z"/>
    <!-- Central Core (Magenta) -->
    <path fill="#ff00ff" d="M11 11H13V13H11V11Z"/>
    <!-- Radiating Lines (Cyan) -->
    <path fill="#00ffff" d="M12 9H12V11H11V10H12V9Z"/>
    <path fill="#00ffff" d="M13 10H12V11H13V10Z"/>
    <path fill="#00ffff" d="M12 13H13V14H12V13Z"/>
    <path fill="#00ffff" d="M11 13H12V14H11V14Z"/>
    <!-- Corner Nodes (Yellow) -->
    <path fill="#ffff00" d="M8 7H9V8H8V7Z"/>
    <path fill="#ffff00" d="M15 7H16V8H15V7Z"/>
    <path fill="#ffff00" d="M8 16H9V17H8V16Z"/>
    <path fill="#ffff00" d="M15 16H16V17H15V16Z"/>
</svg>
